<?xml version="1.0" encoding="UTF-8" standalone="no"?>
<!-- Created with Inkscape (http://www.inkscape.org/) -->

<svg
   width="55"
   height="55"
   viewBox="0 0 14.552084 14.552083"
   version="1.1"
   id="svg1"
   inkscape:version="1.4.3 (0d15f75, 2025-12-25)"
   sodipodi:docname="Drugly_55.svg"
   xmlns:inkscape="http://www.inkscape.org/namespaces/inkscape"
   xmlns:sodipodi="http://sodipodi.sourceforge.net/DTD/sodipodi-0.dtd"
   xmlns="http://www.w3.org/2000/svg"
   xmlns:svg="http://www.w3.org/2000/svg">
  <sodipodi:namedview
     id="namedview1"
     pagecolor="#545454"
     bordercolor="#000000"
     borderopacity="0.25"
     inkscape:showpageshadow="2"
     inkscape:pageopacity="0.0"
     inkscape:pagecheckerboard="0"
     inkscape:deskcolor="#999999"
     inkscape:document-units="mm"
     inkscape:zoom="5.6568542"
     inkscape:cx="57.098873"
     inkscape:cy="64.258329"
     inkscape:window-width="1920"
     inkscape:window-height="1057"
     inkscape:window-x="-8"
     inkscape:window-y="-8"
     inkscape:window-maximized="1"
     inkscape:current-layer="layer1">
    <inkscape:page
       x="0"
       y="0"
       width="14.552084"
       height="14.552083"
       id="page2"
       margin="0"
       bleed="0" />
  </sodipodi:namedview>
  <defs
     id="defs1" />
  <g
     inkscape:label="Layer 1"
     inkscape:groupmode="layer"
     id="layer1">
    <path
       id="text2"
       style="font-size:148.167px;font-family:Stencil;-inkscape-font-specification:Stencil;fill:#f5ccff;stroke-width:0.0385024"
       d="m 1.7225315,0.09065942 c -0.2526719,0 -0.4491933,0.04913058 -0.5895666,0.14739236 -0.13335458,0.0912431 -0.20003144,0.22459748 -0.20003144,0.40006498 0,0.15043236 0.0393639,0.27736424 0.12385404,0.37758014 0.081719,0.096929 0.2369966,0.1861204 0.2972649,0.1909332 0.046825,0.00374 0.09051,0.00123 0.1308476,0.00368 H 6.6812065 V 0.09065942 H 1.9962587 Z m 5.8956645,0 V 1.2592703 C 7.9059612,1.3224386 8.1165199,1.399644 8.2498745,1.4908868 8.3832292,1.5821299 8.4955269,1.7260123 8.5867696,1.922536 8.7341615,2.22434 8.807857,2.6314217 8.807857,3.1437869 v 8.3066121 c 0,0.371991 -0.021056,0.656247 -0.063168,0.85277 -0.035093,0.189505 -0.1052795,0.361462 -0.2105595,0.515873 -0.084224,0.133356 -0.1859938,0.231617 -0.3053112,0.294785 -0.1122986,0.06317 -0.3158385,0.133355 -0.6106225,0.210561 v 1.137027 c 0.6667731,0 1.2036973,-0.05615 1.6107799,-0.168449 0.4141011,-0.112299 0.8597833,-0.322859 1.3370523,-0.631682 0.982614,-0.638701 1.737115,-1.512523 2.263515,-2.621478 0.526399,-1.1159733 0.789597,-2.3898585 0.789597,-3.8216732 0,-1.2633659 -0.207049,-2.4144246 -0.62115,-3.4531923 C 12.597926,2.7402104 11.983797,1.9085 11.155595,1.2697983 10.320374,0.61004051 9.4570839,0.23103333 8.5657136,0.13277152 8.306023,0.10469672 7.9901853,0.09065942 7.618196,0.09065942 Z M 2.0016731,1.8215421 c 0.00112,0.058057 0.00218,0.1198546 0.00511,0.1852181 v 0.541366 h 2.6878666 c 0.5120807,0 0.9240552,0.3323854 0.9240552,0.7455347 0,0.4131492 -0.4119745,0.7455346 -0.9240552,0.7455346 h -2.687863 v 0.6918417 h 2.6878666 c 0.5120807,0 0.9240552,0.3323852 0.9240552,0.7455345 0,0.4131492 -0.4119745,0.7455347 -0.9240552,0.7455347 H 2.0067867 v 0.6916913 h 2.6878666 c 0.5120807,0 0.9240552,0.3323853 0.9240552,0.7455347 0,0.4131492 -0.4119745,0.7455345 -0.9240552,0.7455345 H 2.0067867 l -5.43e-5,4.1404471 c -7.7e-6,0.593727 0,0.643206 0,0.913682 0,0.270476 0.034927,0.483391 0.3160128,0.744035 0.2810858,0.260644 0.6588727,0.258216 0.7947424,0.258255 0.9174044,2.77e-4 3.5637188,0 3.5637188,0 V 1.8215421 Z"
       sodipodi:nodetypes="scsssccccsccscssccccccccscccccccsssccsssccssscszzcccc" />
  </g>
</svg>
