<?xml version="1.0" encoding="UTF-8" standalone="no"?>
<!-- Created with Inkscape (http://www.inkscape.org/) -->

<svg
   width="100mm"
   height="100mm"
   viewBox="0 0 100 100"
   version="1.1"
   id="svg1"
   inkscape:version="1.4.3 (0d15f75, 2025-12-25)"
   sodipodi:docname="Drugly.svg"
   xmlns:inkscape="http://www.inkscape.org/namespaces/inkscape"
   xmlns:sodipodi="http://sodipodi.sourceforge.net/DTD/sodipodi-0.dtd"
   xmlns="http://www.w3.org/2000/svg"
   xmlns:svg="http://www.w3.org/2000/svg">
  <sodipodi:namedview
     id="namedview1"
     pagecolor="#545454"
     bordercolor="#000000"
     borderopacity="0.25"
     inkscape:showpageshadow="2"
     inkscape:pageopacity="0.0"
     inkscape:pagecheckerboard="0"
     inkscape:deskcolor="#999999"
     inkscape:document-units="mm"
     inkscape:zoom="2.8284271"
     inkscape:cx="142.65879"
     inkscape:cy="201.87899"
     inkscape:window-width="2560"
     inkscape:window-height="1566"
     inkscape:window-x="-11"
     inkscape:window-y="-11"
     inkscape:window-maximized="1"
     inkscape:current-layer="layer1" />
  <defs
     id="defs1">
    <rect
       x="35.824273"
       y="35.512758"
       width="154.20013"
       height="153.26559"
       id="rect1" />
  </defs>
  <g
     inkscape:label="Layer 1"
     inkscape:groupmode="layer"
     id="layer1">
    <path
       id="text2"
       style="font-size:148.167px;font-family:Stencil;-inkscape-font-specification:Stencil;fill:#f5ccff;stroke-width:0.264583"
       d="m 11.837004,0.62321777 c -1.736332,0 -3.0868038,0.33761794 -4.0514327,1.01285803 -0.9163975,0.6270088 -1.3745931,1.5434 -1.3745931,2.7491862 0,1.0337485 0.2705044,1.9060053 0.8511108,2.5946737 0.5615654,0.6660836 1.6286127,1.2789917 2.0427694,1.3120646 0.3217739,0.025696 0.6219777,0.00845 0.8991696,0.025322 H 45.912443 V 0.62321777 H 13.718026 Z m 40.514322,0 V 8.6537354 c 1.977489,0.434083 3.424424,0.9646268 4.340821,1.5916336 0.916398,0.627009 1.688095,1.615747 2.315104,2.966228 1.01286,2.073952 1.519287,4.871356 1.519287,8.392252 v 57.081787 c 0,2.556267 -0.144693,4.509628 -0.434082,5.860108 -0.241157,1.302249 -0.723468,2.483911 -1.44694,3.545003 -0.578777,0.916397 -1.278128,1.591633 -2.098063,2.025716 -0.771703,0.434083 -2.170406,0.916394 -4.196127,1.44694 v 7.813477 c 4.581987,0 8.271668,-0.385849 11.069092,-1.157552 2.845655,-0.771703 5.908331,-2.218637 9.18807,-4.340821 6.752403,-4.389061 11.937247,-10.393835 15.554606,-18.014404 3.617359,-7.668801 5.426025,-16.422748 5.426025,-26.261963 0,-8.68166 -1.422818,-16.591562 -4.268473,-23.729817 C 86.571453,18.830532 82.351231,13.115144 76.65992,8.7260824 70.920377,4.1923263 64.98795,1.5878461 58.862557,0.91260579 57.077993,0.71968001 54.907593,0.62321777 52.351326,0.62321777 Z M 13.755233,12.517582 c 0.0077,0.398957 0.01497,0.823623 0.03514,1.272791 v 3.720186 H 32.26108 c 3.518959,0 6.35,2.284102 6.35,5.123202 0,2.839099 -2.831041,5.123201 -6.35,5.123201 H 13.790373 v 4.754232 H 32.26108 c 3.518959,0 6.35,2.284101 6.35,5.123201 0,2.839099 -2.831041,5.123202 -6.35,5.123202 H 13.790373 v 4.753198 H 32.26108 c 3.518959,0 6.35,2.284102 6.35,5.123202 0,2.839099 -2.831041,5.123201 -6.35,5.123201 H 13.790373 L 13.79,86.209725 c -5.3e-5,4.080002 0,4.420019 0,6.278687 0,1.858668 0.240013,3.321788 2.171603,5.112896 1.931589,1.791108 4.527697,1.774423 5.461378,1.774692 6.304296,0.0019 24.489461,0 24.489461,0 V 12.517582 Z"
       sodipodi:nodetypes="scsssccccsccscssccccccccscccccccsssccsssccssscszzcccc" />
  </g>
</svg>
